<svg width="96" height="96" viewBox="0 0 96 96" xmlns="http://www.w3.org/2000/svg" xmlns:xlink="http://www.w3.org/1999/xlink">
    <defs>
        <linearGradient x1="50%" y1="0%" x2="50%" y2="100%" id="b">
            <stop stop-color="#FFF" offset="0%"/>
            <stop stop-color="#F2FAFA" offset="100%"/>
        </linearGradient>
        <circle id="a" cx="48" cy="48" r="48"/>
        <path d="M26.87-1.13c5.523 0 10 4.477 10 10v35.56l-10 10.44-10-10.44V8.87c0-5.523 4.477-10 10-10z" id="d"/>
    </defs>
    <g fill="none" fill-rule="evenodd">
        <mask id="c" fill="#fff">
            <use xlink:href="#a"/>
        </mask>
        <use fill="#058E8F" fill-rule="nonzero" opacity=".1" xlink:href="#a"/>
        <path d="M-5.305 31.648c7.086 8.772 15.892 13.158 26.42 13.158 10.526 0 21.309-4.182 32.347-12.548l-.767 61.232c-11.17 8.772-21.337 13.158-30.503 13.158-9.165 0-18.33-4.386-27.497-13.158V31.648z" fill="url(#b)" fill-rule="nonzero" mask="url(#c)" transform="rotate(-40 24.079 69.148)"/>
        <rect fill="#6343BA" fill-rule="nonzero" mask="url(#c)" x="19" y="65" width="56" height="4" rx="2"/>
        <g mask="url(#c)">
            <g transform="translate(25.13 15.13)">
                <mask id="e" fill="#fff">
                    <use xlink:href="#d"/>
                </mask>
                <use fill="#FFDF00" fill-rule="nonzero" transform="rotate(45 26.87 26.87)" xlink:href="#d"/>
                <path fill="#FFBF00" fill-rule="nonzero" mask="url(#e)" transform="rotate(45 30.07 37.67)" d="M20.07 14.17h20v47h-20z"/>
                <path fill="#FF8C00" fill-rule="nonzero" mask="url(#e)" transform="rotate(-45 45 10.5)" d="M36-1h18v23H36z"/>
                <path fill="#171B25" fill-rule="nonzero" mask="url(#e)" d="M5 41h8v8H5z"/>
            </g>
        </g>
    </g>
</svg>
