<svg width="106" height="117" viewBox="0 0 106 117" xmlns="http://www.w3.org/2000/svg">
    <defs>
        <circle id="a" cx="48" cy="48" r="48"/>
    </defs>
    <g fill="none" fill-rule="evenodd">
        <circle stroke="#FFF" stroke-width="5" cx="48" cy="48" r="50.5" transform="translate(5 16)"/>
        <g fill="#FFF" fill-rule="nonzero">
            <g transform="translate(9)">
                <path d="M2.886 4.771 4.77 2.886l7.778 7.778c2.593 2.593 6.481 4.557 11.664 5.892l-9.657 5.657c-.002-3.85-1.3-7.07-3.892-9.664L2.886 4.771z"/>
                <circle cx="6.607" cy="6.607" r="4"/>
            </g>
            <g transform="matrix(-1 0 0 1 96.213 0)">
                <path d="M2.886 4.771 4.77 2.886l7.778 7.778c2.593 2.593 6.481 4.557 11.664 5.892l-9.657 5.657c-.002-3.85-1.3-7.07-3.892-9.664L2.886 4.771z"/>
                <circle cx="6.607" cy="6.607" r="4"/>
            </g>
        </g>
    </g>
</svg>
