<svg width="44" height="31" viewBox="0 0 44 31" xmlns="http://www.w3.org/2000/svg">
    <g fill="#F9F9F9" fill-rule="nonzero">
        <path d="M5.211 9.06C4.075 8.41 3.534 7.93 3.59 7.616c.085-.482 2.1-.66 2.054-.402l-.316 1.792a.079.079 0 0 1-.116.054zM6.723 11.312c-.825-.71-1.206-1.247-1.142-1.608.04-.224.572-1.266.754-2.297.267-1.51 1.787-.872 1.755-.69-.035.198-.448 1.717-1.24 4.556a.079.079 0 0 1-.127.039zM11.08 15.283c-1.649-1.66-2.42-2.794-2.313-3.4.065-.367 1.437-3.395 1.157-5.28-.199-1.332 3.002-1.314 2.95-1.016-.042.232.638 1.878.086 5.009a13.494 13.494 0 0 1-1.757 4.672.079.079 0 0 1-.123.015zM15.605 18.932c-1.758-1.575-2.588-2.64-2.49-3.194.058-.33 3.069-5.283 1.409-9.745-.35-.939 5.045-1.49 5.62.272.313.96 1.253 3.275 1.062 6.24-.16 2.485-1.41 5.62-1.636 6.91-.269 1.522-1.59 1.36-3.965-.483zM24.406 26.778c-2.554-1.901-3.59-4.023-3.438-4.885.06-.343 4.822-11.703.931-17.067-.488-.674 9.8-3.32 15.074 7.336.437.883 1.152 3.177.944 6.249-.174 2.573 7.737 3.968-3.564 10.656-1.704 1.008-7.394-.387-9.947-2.289z"/>
    </g>
</svg>
